<svg width="43" height="34" viewBox="0 0 43 34" fill="none" xmlns="http://www.w3.org/2000/svg">
<path fill-rule="evenodd" clip-rule="evenodd" d="M38.1968 14.8693V16.8676C38.1968 18.0608 37.7228 19.2052 36.879 20.049C36.0353 20.8927 34.8909 21.3667 33.6976 21.3667C32.5044 21.3667 31.36 20.8927 30.5162 20.049C29.6725 19.2052 29.1985 18.0608 29.1985 16.8676V14.8693L32.3276 16.2596C33.1991 16.6467 34.1962 16.6467 35.0677 16.2596L38.1968 14.8693ZM26.3855 13.6188V18.5558C26.3855 18.7796 26.2965 18.9943 26.1382 19.1526C25.9799 19.3109 25.7652 19.3999 25.5414 19.3999C25.3175 19.3999 25.1028 19.3109 24.9445 19.1526C24.7862 18.9943 24.6973 18.7796 24.6973 18.5558V12.8669C24.7079 12.8726 24.7187 12.8781 24.7297 12.8832L26.3855 13.6188Z" fill="#9595FF"/>
<path fill-rule="evenodd" clip-rule="evenodd" d="M38.1968 14.8693V16.8676C38.1968 18.0608 37.7228 19.2052 36.879 20.049C36.0353 20.8927 34.8909 21.3667 33.6976 21.3667C32.5044 21.3667 31.36 20.8927 30.5162 20.049C29.6725 19.2052 29.1985 18.0608 29.1985 16.8676V14.8693L32.3276 16.2596C33.1991 16.6467 34.1962 16.6467 35.0677 16.2596L38.1968 14.8693ZM26.3855 13.6188V18.5558C26.3855 18.7796 26.2965 18.9943 26.1382 19.1526C25.9799 19.3109 25.7652 19.3999 25.5414 19.3999C25.3175 19.3999 25.1028 19.3109 24.9445 19.1526C24.7862 18.9943 24.6973 18.7796 24.6973 18.5558V12.8669C24.7079 12.8726 24.7187 12.8781 24.7297 12.8832L26.3855 13.6188Z" fill="url(#paint0_linear_218_304)"/>
<path d="M42.6649 12.6846L35.0649 9.30821C34.6336 9.11659 34.1669 9.01758 33.6949 9.01758C33.223 9.01758 32.7562 9.11659 32.3249 9.30821L24.727 12.6846C24.6274 12.7289 24.5429 12.8011 24.4835 12.8925C24.4242 12.9838 24.3926 13.0904 24.3926 13.1994C24.3926 13.3083 24.4242 13.415 24.4835 13.5063C24.5429 13.5977 24.6274 13.6699 24.727 13.7142L32.3269 17.0906C33.1984 17.4777 34.1935 17.4777 35.067 17.0906L42.6649 13.7142C42.7644 13.6699 42.849 13.5977 42.9084 13.5063C42.9677 13.415 42.9993 13.3083 42.9993 13.1994C42.9993 13.0904 42.9677 12.9838 42.9084 12.8925C42.849 12.8011 42.7644 12.7289 42.6649 12.6846Z" fill="#9595FF"/>
<path d="M42.6649 12.6846L35.0649 9.30821C34.6336 9.11659 34.1669 9.01758 33.6949 9.01758C33.223 9.01758 32.7562 9.11659 32.3249 9.30821L24.727 12.6846C24.6274 12.7289 24.5429 12.8011 24.4835 12.8925C24.4242 12.9838 24.3926 13.0904 24.3926 13.1994C24.3926 13.3083 24.4242 13.415 24.4835 13.5063C24.5429 13.5977 24.6274 13.6699 24.727 13.7142L32.3269 17.0906C33.1984 17.4777 34.1935 17.4777 35.067 17.0906L42.6649 13.7142C42.7644 13.6699 42.849 13.5977 42.9084 13.5063C42.9677 13.415 42.9993 13.3083 42.9993 13.1994C42.9993 13.0904 42.9677 12.9838 42.9084 12.8925C42.849 12.8011 42.7644 12.7289 42.6649 12.6846Z" fill="url(#paint1_linear_218_304)"/>
<path fill-rule="evenodd" clip-rule="evenodd" d="M30.2505 31.198H40.4446C40.7402 31.1983 41.0329 31.1403 41.3061 31.0273C41.5792 30.9144 41.8275 30.7488 42.0366 30.5398C42.2457 30.3309 42.4116 30.0828 42.5247 29.8098C42.6379 29.5367 42.6962 29.244 42.6962 28.9484C42.6962 26.5104 40.4952 24.4148 37.3397 23.4866C37.1543 23.4344 36.9583 23.4334 36.7723 23.4837C36.5864 23.534 36.4176 23.6338 36.2838 23.7723L34.4963 25.5801C34.3917 25.6861 34.2671 25.7703 34.1296 25.8277C33.9922 25.8852 33.8448 25.9148 33.6958 25.9148C33.5469 25.9148 33.3994 25.8852 33.262 25.8277C33.1246 25.7703 32.9999 25.6861 32.8953 25.5801L31.1098 23.7723C30.9759 23.634 30.8071 23.5343 30.6212 23.484C30.4353 23.4337 30.2393 23.4346 30.0539 23.4866C29.015 23.7816 28.0313 24.2444 27.1416 24.8566C29.0892 26.6401 30.2424 28.8288 30.2485 31.2L30.2505 31.198ZM21.0596 10.1917V13.2439C21.0596 15.0644 20.3364 16.8104 19.0491 18.0977C17.7618 19.385 16.0159 20.1082 14.1953 20.1082C12.3748 20.1082 10.6289 19.385 9.34157 18.0977C8.05427 16.8104 7.33107 15.0644 7.33107 13.2439V10.1917L12.1038 12.3136C12.7622 12.6064 13.4748 12.7577 14.1953 12.7577C14.9159 12.7577 15.6284 12.6064 16.2869 12.3136L21.0596 10.1917ZM3.04065 8.28669V15.8177C3.04065 16.159 2.90506 16.4864 2.66372 16.7277C2.42237 16.9691 2.09504 17.1047 1.75372 17.1047C1.41241 17.1047 1.08507 16.9691 0.843728 16.7277C0.602383 16.4864 0.466797 16.159 0.466797 15.8177V7.13757C0.482124 7.14544 0.497667 7.15287 0.51341 7.15987L3.04065 8.28669Z" fill="#9595FF"/>
<path fill-rule="evenodd" clip-rule="evenodd" d="M30.2505 31.198H40.4446C40.7402 31.1983 41.0329 31.1403 41.3061 31.0273C41.5792 30.9144 41.8275 30.7488 42.0366 30.5398C42.2457 30.3309 42.4116 30.0828 42.5247 29.8098C42.6379 29.5367 42.6962 29.244 42.6962 28.9484C42.6962 26.5104 40.4952 24.4148 37.3397 23.4866C37.1543 23.4344 36.9583 23.4334 36.7723 23.4837C36.5864 23.534 36.4176 23.6338 36.2838 23.7723L34.4963 25.5801C34.3917 25.6861 34.2671 25.7703 34.1296 25.8277C33.9922 25.8852 33.8448 25.9148 33.6958 25.9148C33.5469 25.9148 33.3994 25.8852 33.262 25.8277C33.1246 25.7703 32.9999 25.6861 32.8953 25.5801L31.1098 23.7723C30.9759 23.634 30.8071 23.5343 30.6212 23.484C30.4353 23.4337 30.2393 23.4346 30.0539 23.4866C29.015 23.7816 28.0313 24.2444 27.1416 24.8566C29.0892 26.6401 30.2424 28.8288 30.2485 31.2L30.2505 31.198ZM21.0596 10.1917V13.2439C21.0596 15.0644 20.3364 16.8104 19.0491 18.0977C17.7618 19.385 16.0159 20.1082 14.1953 20.1082C12.3748 20.1082 10.6289 19.385 9.34157 18.0977C8.05427 16.8104 7.33107 15.0644 7.33107 13.2439V10.1917L12.1038 12.3136C12.7622 12.6064 13.4748 12.7577 14.1953 12.7577C14.9159 12.7577 15.6284 12.6064 16.2869 12.3136L21.0596 10.1917ZM3.04065 8.28669V15.8177C3.04065 16.159 2.90506 16.4864 2.66372 16.7277C2.42237 16.9691 2.09504 17.1047 1.75372 17.1047C1.41241 17.1047 1.08507 16.9691 0.843728 16.7277C0.602383 16.4864 0.466797 16.159 0.466797 15.8177V7.13757C0.482124 7.14544 0.497667 7.15287 0.51341 7.15987L3.04065 8.28669Z" fill="url(#paint2_linear_218_304)"/>
<path d="M27.8751 5.59332L16.2846 0.44359C15.6265 0.151119 14.9143 0 14.1941 0C13.474 0 12.7618 0.151119 12.1037 0.44359L0.511197 5.59332C0.359126 5.66042 0.229841 5.77028 0.139081 5.90953C0.0483211 6.04878 0 6.21142 0 6.37763C0 6.54385 0.0483211 6.70648 0.139081 6.84573C0.229841 6.98498 0.359126 7.09485 0.511197 7.16195L12.1037 12.3137C12.7618 12.6062 13.474 12.7573 14.1941 12.7573C14.9143 12.7573 15.6265 12.6062 16.2846 12.3137L27.8751 7.16195C28.0271 7.09485 28.1564 6.98498 28.2472 6.84573C28.3379 6.70648 28.3863 6.54385 28.3863 6.37763C28.3863 6.21142 28.3379 6.04878 28.2472 5.90953C28.1564 5.77028 28.0271 5.66042 27.8751 5.59332ZM10.2472 22.5098L12.9731 25.2661C13.1327 25.4276 13.3229 25.5559 13.5325 25.6435C13.7421 25.731 13.967 25.7761 14.1941 25.7761C14.4213 25.7761 14.6462 25.731 14.8558 25.6435C15.0654 25.5559 15.2555 25.4276 15.4152 25.2661L18.1411 22.5098C18.5626 22.0842 19.1746 21.9018 19.7522 22.072C24.5655 23.4866 27.9237 26.6867 27.9237 30.4056C27.9237 32.3006 26.3875 33.8368 24.4906 33.8368H3.89773C2.98756 33.8368 2.11463 33.4753 1.47085 32.8319C0.827064 32.1885 0.465121 31.3158 0.464584 30.4056C0.464584 26.6867 3.82275 23.4866 8.63808 22.072C8.92084 21.9931 9.2197 21.9921 9.50299 22.0691C9.78628 22.1462 10.0434 22.2985 10.2472 22.5098Z" fill="#9595FF"/>
<path d="M27.8751 5.59332L16.2846 0.44359C15.6265 0.151119 14.9143 0 14.1941 0C13.474 0 12.7618 0.151119 12.1037 0.44359L0.511197 5.59332C0.359126 5.66042 0.229841 5.77028 0.139081 5.90953C0.0483211 6.04878 0 6.21142 0 6.37763C0 6.54385 0.0483211 6.70648 0.139081 6.84573C0.229841 6.98498 0.359126 7.09485 0.511197 7.16195L12.1037 12.3137C12.7618 12.6062 13.474 12.7573 14.1941 12.7573C14.9143 12.7573 15.6265 12.6062 16.2846 12.3137L27.8751 7.16195C28.0271 7.09485 28.1564 6.98498 28.2472 6.84573C28.3379 6.70648 28.3863 6.54385 28.3863 6.37763C28.3863 6.21142 28.3379 6.04878 28.2472 5.90953C28.1564 5.77028 28.0271 5.66042 27.8751 5.59332ZM10.2472 22.5098L12.9731 25.2661C13.1327 25.4276 13.3229 25.5559 13.5325 25.6435C13.7421 25.731 13.967 25.7761 14.1941 25.7761C14.4213 25.7761 14.6462 25.731 14.8558 25.6435C15.0654 25.5559 15.2555 25.4276 15.4152 25.2661L18.1411 22.5098C18.5626 22.0842 19.1746 21.9018 19.7522 22.072C24.5655 23.4866 27.9237 26.6867 27.9237 30.4056C27.9237 32.3006 26.3875 33.8368 24.4906 33.8368H3.89773C2.98756 33.8368 2.11463 33.4753 1.47085 32.8319C0.827064 32.1885 0.465121 31.3158 0.464584 30.4056C0.464584 26.6867 3.82275 23.4866 8.63808 22.072C8.92084 21.9931 9.2197 21.9921 9.50299 22.0691C9.78628 22.1462 10.0434 22.2985 10.2472 22.5098Z" fill="url(#paint3_linear_218_304)"/>
<defs>
<linearGradient id="paint0_linear_218_304" x1="24.6973" y1="12.8669" x2="31.1869" y2="24.4559" gradientUnits="userSpaceOnUse">
<stop stop-color="#00C4FF"/>
<stop offset="1" stop-color="#333493"/>
</linearGradient>
<linearGradient id="paint1_linear_218_304" x1="24.3926" y1="9.01758" x2="29.5554" y2="21.9324" gradientUnits="userSpaceOnUse">
<stop stop-color="#00C4FF"/>
<stop offset="1" stop-color="#333493"/>
</linearGradient>
<linearGradient id="paint2_linear_218_304" x1="0.466797" y1="7.13757" x2="17.8438" y2="41.4272" gradientUnits="userSpaceOnUse">
<stop stop-color="#00C4FF"/>
<stop offset="1" stop-color="#333493"/>
</linearGradient>
<linearGradient id="paint3_linear_218_304" x1="0" y1="0" x2="30.2492" y2="28.5329" gradientUnits="userSpaceOnUse">
<stop stop-color="#00C4FF"/>
<stop offset="1" stop-color="#333493"/>
</linearGradient>
</defs>
</svg>
